# xmcd
# 
# Track frame offsets:
#     150
#     22598
#     43048
#     65213
#     83225
#     96573
#     114850
#     139790
#     162408
# 
# Disc length: 2516
# 
# Revision: 1
# Processed by: cddbd v1.5.2PL0 Copyright (c) Steve Scherf et al.
# Submitted via: fre:ac v1.0.17
# 
DISCID=7309d209
DTITLE=Lazy - 宇宙船地球号
DYEAR=1980
DGENRE=Heavy Metal
TTITLE0=Dreamer
TTITLE1=Dreamy Express Trip
TTITLE2=天使が見たものは
TTITLE3=Time Gap
TTITLE4=遥かなるマザーランド
TTITLE5=Earth Ark (宇宙船地球号)
TTITLE6=僕らの国でも
TTITLE7=美しい予感
TTITLE8=Lonely Star
EXTD=YEAR: 1980
EXTT0=
EXTT1=
EXTT2=
EXTT3=
EXTT4=
EXTT5=
EXTT6=
EXTT7=
EXTT8=
PLAYORDER=
